<svg width="24" height="24" viewBox="0 0 24 24" fill="none" xmlns="http://www.w3.org/2000/svg">
<g id="geo">
<path id="Vector" d="M17.6571 5.30402C14.5331 2.23102 9.46814 2.23102 6.34414 5.30402C5.60242 6.02865 5.01305 6.89425 4.61066 7.84993C4.20826 8.8056 4.00098 9.83208 4.00098 10.869C4.00098 11.906 4.20826 12.9324 4.61066 13.8881C5.01305 14.8438 5.60242 15.7094 6.34414 16.434L12.0001 21.999L17.6571 16.434C18.3989 15.7094 18.9882 14.8438 19.3906 13.8881C19.793 12.9324 20.0003 11.906 20.0003 10.869C20.0003 9.83208 19.793 8.8056 19.3906 7.84993C18.9882 6.89425 18.3989 6.02865 17.6571 5.30402ZM12.0001 13.499C11.3321 13.499 10.7051 13.239 10.2321 12.767C9.76389 12.2978 9.50092 11.6619 9.50092 10.999C9.50092 10.3361 9.76389 9.70027 10.2321 9.23102C10.7041 8.75902 11.3321 8.49902 12.0001 8.49902C12.6681 8.49902 13.2961 8.75902 13.7681 9.23102C14.2364 9.70027 14.4994 10.3361 14.4994 10.999C14.4994 11.6619 14.2364 12.2978 13.7681 12.767C13.2961 13.239 12.6681 13.499 12.0001 13.499Z" fill="white"/>
</g>
</svg>
