<svg width="24" height="24" viewBox="0 0 24 24" fill="none" xmlns="http://www.w3.org/2000/svg">
<g id="sale">
<path id="Vector" d="M17.4678 4.48384L17.9895 7.78516L20.9915 9.31608L19.4776 12.3095L21 15.3029L17.9724 16.8338L17.4507 20.1351L14.1237 19.6134L11.7546 21.974L9.37699 19.5792L6.07568 20.1266L5.54541 16.7996L2.56055 15.2773L4.08291 12.2838L2.5691 9.31608L5.57107 7.76805L6.09278 4.49239L9.40265 5.03976L11.7803 2.63647L14.1494 5.00555L17.4678 4.48384ZM9.64212 8.03318C9.30188 8.03318 8.97557 8.16834 8.73498 8.40893C8.49439 8.64952 8.35923 8.97583 8.35923 9.31608C8.35923 9.65632 8.49439 9.98263 8.73498 10.2232C8.97557 10.4638 9.30188 10.599 9.64212 10.599C9.98237 10.599 10.3087 10.4638 10.5493 10.2232C10.7899 9.98263 10.925 9.65632 10.925 9.31608C10.925 8.97583 10.7899 8.64952 10.5493 8.40893C10.3087 8.16834 9.98237 8.03318 9.64212 8.03318ZM13.9184 14.02C13.5782 14.02 13.2519 14.1552 13.0113 14.3958C12.7707 14.6364 12.6355 14.9627 12.6355 15.3029C12.6355 15.6432 12.7707 15.9695 13.0113 16.2101C13.2519 16.4506 13.5782 16.5858 13.9184 16.5858C14.2587 16.5858 14.585 16.4506 14.8256 16.2101C15.0662 15.9695 15.2013 15.6432 15.2013 15.3029C15.2013 14.9627 15.0662 14.6364 14.8256 14.3958C14.585 14.1552 14.2587 14.02 13.9184 14.02ZM8.70989 16.5858L16.0566 9.2391L14.8507 8.03318L7.50396 15.3799L8.70989 16.5858Z" fill="white"/>
</g>
</svg>
