<svg width="22" height="20" viewBox="0 0 22 20" fill="none" xmlns="http://www.w3.org/2000/svg">
<g id="Group">
<path id="Vector" d="M3 16V19M4 8V3C4 2.46957 4.21071 1.96086 4.58579 1.58579C4.96086 1.21071 5.46957 1 6 1H16C16.5304 1 17.0391 1.21071 17.4142 1.58579C17.7893 1.96086 18 2.46957 18 3V8" stroke="white" stroke-width="2" stroke-linecap="round" stroke-linejoin="round"/>
<path id="Vector_2" d="M19 16H3V12.95C2.53654 12.8554 2.10943 12.6313 1.76828 12.3036C1.42712 11.9759 1.18592 11.5582 1.07269 11.099C0.959456 10.6397 0.978838 10.1577 1.12859 9.70906C1.27833 9.26038 1.5523 8.86338 1.91866 8.56418C2.28503 8.26498 2.72876 8.07586 3.19832 8.01878C3.66788 7.9617 4.14399 8.039 4.57137 8.24171C4.99875 8.44442 5.35985 8.76422 5.61273 9.16396C5.86562 9.5637 5.9999 10.027 6 10.5V12H16V10.5C16 9.83696 16.2634 9.20108 16.7322 8.73223C17.2011 8.26339 17.837 8 18.5 8C19.12 7.99938 19.7181 8.22914 20.1782 8.64469C20.6383 9.06023 20.9275 9.63192 20.9899 10.2488C21.0522 10.8656 20.883 11.4836 20.5153 11.9827C20.1476 12.4819 19.6076 12.8266 19 12.95V16ZM19 16V19" stroke="white" stroke-width="2" stroke-linecap="round" stroke-linejoin="round"/>
</g>
</svg>
