<svg width="34" height="19" viewBox="0 0 34 19" fill="none" xmlns="http://www.w3.org/2000/svg">
<path d="M6.896 18H0.272V1.2H6.896C8.4 1.2 9.776 1.552 11.024 2.256C12.272 2.96 13.264 3.96 14 5.256C14.736 6.536 15.104 7.976 15.104 9.576C15.104 10.792 14.888 11.928 14.456 12.984C14.024 14.024 13.44 14.912 12.704 15.648C11.968 16.384 11.096 16.96 10.088 17.376C9.08 17.792 8.016 18 6.896 18ZM6.656 4.224H3.392V14.976H6.656C8.144 14.976 9.408 14.472 10.448 13.464C11.488 12.456 12.008 11.16 12.008 9.576C12.008 8.008 11.488 6.728 10.448 5.736C9.408 4.728 8.144 4.224 6.656 4.224Z" fill="white"/>
<path d="M17.8424 14.112C17.0744 12.752 16.6904 11.24 16.6904 9.576C16.6904 7.912 17.0744 6.408 17.8424 5.064C18.6104 3.704 19.6584 2.64 20.9864 1.872C22.3304 1.104 23.8104 0.719999 25.4264 0.719999C27.2184 0.719999 28.8504 1.208 30.3224 2.184C31.7944 3.144 32.9064 4.464 33.6584 6.144L30.5384 7.272C30.0744 6.2 29.3864 5.36 28.4744 4.752C27.5624 4.144 26.5384 3.84 25.4024 3.84C23.8344 3.84 22.5064 4.384 21.4184 5.472C20.3464 6.56 19.8104 7.928 19.8104 9.576C19.8104 11.224 20.3464 12.592 21.4184 13.68C22.5064 14.768 23.8344 15.312 25.4024 15.312C26.5704 15.312 27.6184 14.992 28.5464 14.352C29.4744 13.696 30.1704 12.8 30.6344 11.664L33.7784 12.768C33.0424 14.512 31.9224 15.896 30.4184 16.92C28.9304 17.928 27.2664 18.432 25.4264 18.432C23.8104 18.432 22.3304 18.048 20.9864 17.28C19.6584 16.512 18.6104 15.456 17.8424 14.112Z" fill="white"/>
<path d="M17.8424 14.112C17.0744 12.752 16.6904 11.24 16.6904 9.576C16.6904 7.912 17.0744 6.408 17.8424 5.064C18.6104 3.704 19.6584 2.64 20.9864 1.872C22.3304 1.104 23.8104 0.719999 25.4264 0.719999C27.2184 0.719999 28.8504 1.208 30.3224 2.184C31.7944 3.144 32.9064 4.464 33.6584 6.144L30.5384 7.272C30.0744 6.2 29.3864 5.36 28.4744 4.752C27.5624 4.144 26.5384 3.84 25.4024 3.84C23.8344 3.84 22.5064 4.384 21.4184 5.472C20.3464 6.56 19.8104 7.928 19.8104 9.576C19.8104 11.224 20.3464 12.592 21.4184 13.68C22.5064 14.768 23.8344 15.312 25.4024 15.312C26.5704 15.312 27.6184 14.992 28.5464 14.352C29.4744 13.696 30.1704 12.8 30.6344 11.664L33.7784 12.768C33.0424 14.512 31.9224 15.896 30.4184 16.92C28.9304 17.928 27.2664 18.432 25.4264 18.432C23.8104 18.432 22.3304 18.048 20.9864 17.28C19.6584 16.512 18.6104 15.456 17.8424 14.112Z" fill="url(#paint0_linear_789_5012)"/>
<defs>
<linearGradient id="paint0_linear_789_5012" x1="20.5" y1="-2" x2="38.1612" y2="8.12845" gradientUnits="userSpaceOnUse">
<stop stop-color="#00FFA3"/>
<stop offset="1" stop-color="#0084FF"/>
</linearGradient>
</defs>
</svg>
