<svg width="40" height="40" viewBox="0 0 40 40" fill="none" xmlns="http://www.w3.org/2000/svg">
<g id="camera">
<path id="Vector" fill-rule="evenodd" clip-rule="evenodd" d="M12.518 7.15718C12.9744 4.91787 14.9676 3.33325 17.2497 3.33325H22.836C25.118 3.33325 27.1095 4.91787 27.5676 7.15718C27.6181 7.40377 27.7501 7.62619 27.9423 7.78867C28.1346 7.95114 28.3759 8.04421 28.6274 8.05291H28.6838C31.0821 8.15889 32.9249 8.45291 34.4633 9.46317C35.4326 10.0991 36.2667 10.9162 36.9163 11.8717C37.7249 13.058 38.0804 14.4221 38.2514 16.07C38.4189 17.682 38.4189 19.7008 38.4189 22.258V22.4033C38.4189 24.9606 38.4189 26.9811 38.2514 28.5914C38.0804 30.2392 37.7249 31.6033 36.9163 32.7914C36.2647 33.7475 35.4312 34.5659 34.4633 35.1999C33.2616 35.9879 31.8821 36.3367 30.2103 36.5025C28.5727 36.6666 26.5197 36.6666 23.9112 36.6666H16.1744C13.5659 36.6666 11.5129 36.6666 9.8753 36.5025C8.2035 36.3367 6.82401 35.9897 5.6223 35.1999C4.65428 34.5654 3.82075 33.7464 3.16931 32.7897C2.36077 31.6033 2.00521 30.2392 1.83427 28.5914C1.66675 26.9811 1.66675 24.9606 1.66675 22.4033V22.258C1.66675 19.7008 1.66675 17.682 1.83427 16.07C2.00521 14.4221 2.36077 13.058 3.16931 11.8717C3.82075 10.915 4.65428 10.096 5.6223 9.46146C7.16077 8.45291 9.0035 8.15889 11.4018 8.05462L11.4309 8.05291H11.4582C11.7098 8.04421 11.9511 7.95114 12.1433 7.78867C12.3355 7.62619 12.4675 7.40377 12.518 7.15718ZM17.2497 5.89735C16.1556 5.89735 15.2377 6.65462 15.0309 7.66829C14.6975 9.30932 13.2411 10.6016 11.489 10.617C9.1847 10.7196 7.95051 11.0016 7.02743 11.6068C6.34176 12.0567 5.7511 12.6369 5.28897 13.3144C4.81718 14.0068 4.53341 14.8939 4.38299 16.335C4.23256 17.7982 4.23085 19.6854 4.23085 22.3315C4.23085 24.9777 4.23085 26.8632 4.3847 28.3264C4.53341 29.7674 4.81718 30.6546 5.29068 31.3486C5.7488 32.0221 6.33854 32.6033 7.02914 33.0546C7.74196 33.523 8.65478 33.805 10.13 33.9521C11.624 34.1008 13.5488 34.1025 16.2445 34.1025H23.8411C26.5351 34.1025 28.4599 34.1025 29.9556 33.9521C31.4309 33.805 32.3437 33.5247 33.0565 33.0563C33.7471 32.6033 34.3385 32.0221 34.7967 31.3469C35.2685 30.6546 35.5522 29.7674 35.7026 28.3264C35.8531 26.8632 35.8548 24.976 35.8548 22.3315C35.8548 19.6854 35.8548 17.7982 35.7009 16.335C35.5522 14.8939 35.2685 14.0068 34.795 13.3144C34.3333 12.636 33.7426 12.0552 33.0565 11.605C32.1368 11.0016 30.9026 10.7196 28.595 10.617C26.8445 10.5999 25.3881 9.31103 25.0548 7.66829C24.9454 7.16278 24.6649 6.7105 24.2606 6.38785C23.8564 6.0652 23.3532 5.89195 22.836 5.89735H17.2497ZM20.0428 17.8632C19.0228 17.8632 18.0445 18.2684 17.3232 18.9897C16.6019 19.711 16.1967 20.6893 16.1967 21.7093C16.1967 22.7294 16.6019 23.7077 17.3232 24.429C18.0445 25.1503 19.0228 25.5555 20.0428 25.5555C21.0629 25.5555 22.0412 25.1503 22.7625 24.429C23.4838 23.7077 23.889 22.7294 23.889 21.7093C23.889 20.6893 23.4838 19.711 22.7625 18.9897C22.0412 18.2684 21.0629 17.8632 20.0428 17.8632ZM13.6326 21.7093C13.6326 20.0092 14.3079 18.3787 15.5101 17.1766C16.7122 15.9744 18.3427 15.2991 20.0428 15.2991C21.7429 15.2991 23.3734 15.9744 24.5756 17.1766C25.7777 18.3787 26.4531 20.0092 26.4531 21.7093C26.4531 23.4094 25.7777 25.0399 24.5756 26.2421C23.3734 27.4442 21.7429 28.1196 20.0428 28.1196C18.3427 28.1196 16.7122 27.4442 15.5101 26.2421C14.3079 25.0399 13.6326 23.4094 13.6326 21.7093Z" fill="white"/>
</g>
</svg>
