<svg width="154" height="24" viewBox="0 0 154 24" fill="none" xmlns="http://www.w3.org/2000/svg">
<path d="M8.212 23H0.484V3.4H8.212C9.96667 3.4 11.572 3.81067 13.028 4.632C14.484 5.45333 15.6413 6.62 16.5 8.132C17.3587 9.62533 17.788 11.3053 17.788 13.172C17.788 14.5907 17.536 15.916 17.032 17.148C16.528 18.3613 15.8467 19.3973 14.988 20.256C14.1293 21.1147 13.112 21.7867 11.936 22.272C10.76 22.7573 9.51867 23 8.212 23ZM7.932 6.928H4.124V19.472H7.932C9.668 19.472 11.1427 18.884 12.356 17.708C13.5693 16.532 14.176 15.02 14.176 13.172C14.176 11.3427 13.5693 9.84933 12.356 8.692C11.1427 7.516 9.668 6.928 7.932 6.928ZM23.8388 11.38H33.2468V14.964H23.8388V19.416H33.9188V23H20.1988V3.4H33.9188V6.984H23.8388V11.38ZM42.8817 14.992C40.679 14.6 38.9897 13.8813 37.8137 12.836C36.6564 11.772 36.0777 10.4467 36.0777 8.86C36.0777 7.16133 36.703 5.77067 37.9537 4.688C39.2044 3.58667 40.791 3.036 42.7137 3.036C44.4124 3.036 45.943 3.47467 47.3057 4.352C48.6684 5.22933 49.6484 6.40533 50.2457 7.88L46.7457 9.168C46.391 8.34667 45.859 7.70267 45.1497 7.236C44.459 6.75067 43.6844 6.508 42.8257 6.508C41.9484 6.508 41.2297 6.72267 40.6697 7.152C40.1284 7.58133 39.8577 8.132 39.8577 8.804C39.8577 9.43867 40.147 9.952 40.7257 10.344C41.3044 10.736 42.247 11.0533 43.5537 11.296C45.7377 11.7067 47.427 12.4627 48.6217 13.564C49.835 14.6467 50.4417 15.972 50.4417 17.54C50.4417 19.22 49.7884 20.6013 48.4817 21.684C47.1937 22.7667 45.5417 23.308 43.5257 23.308C41.827 23.308 40.2777 22.888 38.8777 22.048C37.4777 21.1893 36.4697 20.0413 35.8537 18.604L39.3817 16.924C39.7364 17.8387 40.2777 18.5573 41.0057 19.08C41.7337 19.584 42.5457 19.836 43.4417 19.836C44.375 19.836 45.1404 19.612 45.7377 19.164C46.335 18.716 46.6337 18.156 46.6337 17.484C46.6337 16.8493 46.3257 16.336 45.7097 15.944C45.1124 15.5333 44.1697 15.216 42.8817 14.992ZM56.4873 23H52.8473V3.4H56.4873V23ZM64.3925 8.384C63.1605 9.65333 62.5445 11.2493 62.5445 13.172C62.5445 15.0947 63.1605 16.6907 64.3925 17.96C65.6431 19.2293 67.1831 19.864 69.0125 19.864C70.5431 19.864 71.8778 19.4253 73.0165 18.548C74.1738 17.6707 74.8831 16.5133 75.1445 15.076H67.9485V11.8H79.0925V23H75.4805V20.06C74.6591 21.1427 73.6325 21.992 72.4005 22.608C71.1871 23.2053 69.8711 23.504 68.4525 23.504C65.7645 23.504 63.4965 22.524 61.6485 20.564C59.8191 18.5853 58.9045 16.1213 58.9045 13.172C58.9045 11.2307 59.3525 9.46667 60.2485 7.88C61.1445 6.29333 62.3578 5.06133 63.8885 4.184C65.4378 3.288 67.1458 2.84 69.0125 2.84C70.9725 2.84 72.7551 3.344 74.3605 4.352C75.9845 5.34133 77.2071 6.704 78.0285 8.44L74.7805 10.12C74.2391 8.98133 73.4551 8.09467 72.4285 7.46C71.4018 6.80667 70.2631 6.48 69.0125 6.48C67.1831 6.48 65.6431 7.11467 64.3925 8.384ZM81.777 23V3.4H85.977L94.573 17.232V3.4H98.213V23H94.013L85.417 9.084V23H81.777Z" fill="white"/>
<path d="M107.282 10.2952C106.744 9.3432 106.476 8.2792 106.476 7.1032C106.487 5.9272 106.761 4.8632 107.299 3.9112C107.836 2.9592 108.564 2.22 109.483 1.6936C110.412 1.1672 111.432 0.903999 112.54 0.903999C113.784 0.903999 114.909 1.2344 115.917 1.8952C116.925 2.5448 117.692 3.4352 118.219 4.5664L116.925 5.0704C116.522 4.1968 115.928 3.508 115.144 3.004C114.36 2.5 113.492 2.248 112.54 2.248C111.219 2.248 110.104 2.7072 109.197 3.6256C108.29 4.5328 107.836 5.692 107.836 7.1032C107.836 8.5032 108.29 9.6624 109.197 10.5808C110.104 11.4992 111.219 11.9584 112.54 11.9584C113.515 11.9584 114.4 11.6952 115.195 11.1688C116.001 10.6312 116.6 9.9032 116.992 8.9848L118.286 9.472C117.793 10.648 117.026 11.5832 115.984 12.2776C114.954 12.9608 113.806 13.3024 112.54 13.3024C111.432 13.3024 110.412 13.0392 109.483 12.5128C108.564 11.9864 107.831 11.2472 107.282 10.2952ZM120.408 13V0.399998H121.752V13H120.408ZM126.125 6.4816C125.509 7.0752 125.201 7.8424 125.201 8.7832C125.201 9.724 125.509 10.4968 126.125 11.1016C126.753 11.6952 127.514 11.992 128.41 11.992C129.306 11.992 130.062 11.6952 130.678 11.1016C131.305 10.4968 131.619 9.724 131.619 8.7832C131.619 7.8424 131.305 7.0752 130.678 6.4816C130.062 5.8768 129.306 5.5744 128.41 5.5744C127.514 5.5744 126.753 5.8768 126.125 6.4816ZM125.168 12.0256C124.294 11.1744 123.857 10.0936 123.857 8.7832C123.857 7.4728 124.294 6.392 125.168 5.5408C126.053 4.6896 127.133 4.264 128.41 4.264C129.687 4.264 130.762 4.6896 131.636 5.5408C132.521 6.392 132.963 7.4728 132.963 8.7832C132.963 10.0936 132.521 11.1744 131.636 12.0256C130.762 12.8768 129.687 13.3024 128.41 13.3024C127.133 13.3024 126.053 12.8768 125.168 12.0256ZM141.937 4.6V13H140.593V4.6H141.937ZM136.426 4.6V9.8584C136.426 10.4968 136.606 10.9952 136.964 11.3536C137.334 11.712 137.804 11.8912 138.375 11.8912C138.991 11.8912 139.512 11.6952 139.938 11.3032C140.374 10.9112 140.593 10.4464 140.593 9.9088H141.298C141.298 10.8048 140.985 11.5776 140.358 12.2272C139.73 12.8656 138.946 13.1848 138.006 13.1848C137.177 13.1848 136.482 12.9048 135.922 12.3448C135.362 11.7848 135.082 11.0512 135.082 10.144V4.6H136.426ZM153.15 13H151.806V0.399998H153.15V13ZM150.865 11.0848C151.492 10.48 151.806 9.7128 151.806 8.7832C151.806 7.8536 151.492 7.0864 150.865 6.4816C150.249 5.8768 149.493 5.5744 148.597 5.5744C147.701 5.5744 146.939 5.8768 146.312 6.4816C145.696 7.0864 145.388 7.8536 145.388 8.7832C145.388 9.7128 145.696 10.48 146.312 11.0848C146.939 11.6896 147.701 11.992 148.597 11.992C149.493 11.992 150.249 11.6896 150.865 11.0848ZM151.251 5.5576C152.047 6.4088 152.444 7.484 152.444 8.7832C152.444 10.0824 152.047 11.1632 151.251 12.0256C150.456 12.8768 149.476 13.3024 148.311 13.3024C147.113 13.3024 146.099 12.8768 145.271 12.0256C144.453 11.1632 144.044 10.0824 144.044 8.7832C144.044 7.484 144.453 6.4088 145.271 5.5576C146.099 4.6952 147.113 4.264 148.311 4.264C149.476 4.264 150.456 4.6952 151.251 5.5576Z" fill="white"/>
<path d="M107.282 10.2952C106.744 9.3432 106.476 8.2792 106.476 7.1032C106.487 5.9272 106.761 4.8632 107.299 3.9112C107.836 2.9592 108.564 2.22 109.483 1.6936C110.412 1.1672 111.432 0.903999 112.54 0.903999C113.784 0.903999 114.909 1.2344 115.917 1.8952C116.925 2.5448 117.692 3.4352 118.219 4.5664L116.925 5.0704C116.522 4.1968 115.928 3.508 115.144 3.004C114.36 2.5 113.492 2.248 112.54 2.248C111.219 2.248 110.104 2.7072 109.197 3.6256C108.29 4.5328 107.836 5.692 107.836 7.1032C107.836 8.5032 108.29 9.6624 109.197 10.5808C110.104 11.4992 111.219 11.9584 112.54 11.9584C113.515 11.9584 114.4 11.6952 115.195 11.1688C116.001 10.6312 116.6 9.9032 116.992 8.9848L118.286 9.472C117.793 10.648 117.026 11.5832 115.984 12.2776C114.954 12.9608 113.806 13.3024 112.54 13.3024C111.432 13.3024 110.412 13.0392 109.483 12.5128C108.564 11.9864 107.831 11.2472 107.282 10.2952ZM120.408 13V0.399998H121.752V13H120.408ZM126.125 6.4816C125.509 7.0752 125.201 7.8424 125.201 8.7832C125.201 9.724 125.509 10.4968 126.125 11.1016C126.753 11.6952 127.514 11.992 128.41 11.992C129.306 11.992 130.062 11.6952 130.678 11.1016C131.305 10.4968 131.619 9.724 131.619 8.7832C131.619 7.8424 131.305 7.0752 130.678 6.4816C130.062 5.8768 129.306 5.5744 128.41 5.5744C127.514 5.5744 126.753 5.8768 126.125 6.4816ZM125.168 12.0256C124.294 11.1744 123.857 10.0936 123.857 8.7832C123.857 7.4728 124.294 6.392 125.168 5.5408C126.053 4.6896 127.133 4.264 128.41 4.264C129.687 4.264 130.762 4.6896 131.636 5.5408C132.521 6.392 132.963 7.4728 132.963 8.7832C132.963 10.0936 132.521 11.1744 131.636 12.0256C130.762 12.8768 129.687 13.3024 128.41 13.3024C127.133 13.3024 126.053 12.8768 125.168 12.0256ZM141.937 4.6V13H140.593V4.6H141.937ZM136.426 4.6V9.8584C136.426 10.4968 136.606 10.9952 136.964 11.3536C137.334 11.712 137.804 11.8912 138.375 11.8912C138.991 11.8912 139.512 11.6952 139.938 11.3032C140.374 10.9112 140.593 10.4464 140.593 9.9088H141.298C141.298 10.8048 140.985 11.5776 140.358 12.2272C139.73 12.8656 138.946 13.1848 138.006 13.1848C137.177 13.1848 136.482 12.9048 135.922 12.3448C135.362 11.7848 135.082 11.0512 135.082 10.144V4.6H136.426ZM153.15 13H151.806V0.399998H153.15V13ZM150.865 11.0848C151.492 10.48 151.806 9.7128 151.806 8.7832C151.806 7.8536 151.492 7.0864 150.865 6.4816C150.249 5.8768 149.493 5.5744 148.597 5.5744C147.701 5.5744 146.939 5.8768 146.312 6.4816C145.696 7.0864 145.388 7.8536 145.388 8.7832C145.388 9.7128 145.696 10.48 146.312 11.0848C146.939 11.6896 147.701 11.992 148.597 11.992C149.493 11.992 150.249 11.6896 150.865 11.0848ZM151.251 5.5576C152.047 6.4088 152.444 7.484 152.444 8.7832C152.444 10.0824 152.047 11.1632 151.251 12.0256C150.456 12.8768 149.476 13.3024 148.311 13.3024C147.113 13.3024 146.099 12.8768 145.271 12.0256C144.453 11.1632 144.044 10.0824 144.044 8.7832C144.044 7.484 144.453 6.4088 145.271 5.5576C146.099 4.6952 147.113 4.264 148.311 4.264C149.476 4.264 150.456 4.6952 151.251 5.5576Z" fill="url(#paint0_linear_573_1830)"/>
<defs>
<linearGradient id="paint0_linear_573_1830" x1="107.674" y1="5.91666" x2="126.308" y2="34.0346" gradientUnits="userSpaceOnUse">
<stop stop-color="#00FFA3"/>
<stop offset="1" stop-color="#0084FF"/>
</linearGradient>
</defs>
</svg>
