<svg width="124" height="124" viewBox="0 0 124 124" fill="none" xmlns="http://www.w3.org/2000/svg">
<path d="M62 58V34" stroke="#8F8F8F" stroke-width="1.6"/>
<path d="M50 46L74 46" stroke="#8F8F8F" stroke-width="1.6"/>
<path d="M15.4943 81.1392C14.8381 81.1392 14.2531 81.0265 13.7393 80.8011C13.2289 80.5758 12.8229 80.2625 12.5213 79.8615C12.223 79.4571 12.0606 78.9882 12.0341 78.4545H13.2869C13.3134 78.7827 13.4261 79.0661 13.625 79.3047C13.8239 79.54 14.084 79.7223 14.4055 79.8516C14.727 79.9808 15.0833 80.0455 15.4744 80.0455C15.9119 80.0455 16.2997 79.9692 16.6378 79.8168C16.9759 79.6643 17.241 79.4522 17.4332 79.1804C17.6255 78.9086 17.7216 78.5938 17.7216 78.2358C17.7216 77.8613 17.6288 77.5315 17.4432 77.2464C17.2576 76.9581 16.9858 76.7327 16.6278 76.5703C16.2699 76.4079 15.8324 76.3267 15.3153 76.3267H14.5V75.233H15.3153C15.7197 75.233 16.0743 75.16 16.3793 75.0142C16.6875 74.8684 16.9278 74.6629 17.1001 74.3977C17.2758 74.1326 17.3636 73.821 17.3636 73.4631C17.3636 73.1184 17.2874 72.8184 17.1349 72.5632C16.9825 72.308 16.767 72.1091 16.4886 71.9666C16.2135 71.8241 15.8887 71.7528 15.5142 71.7528C15.1629 71.7528 14.8314 71.8175 14.5199 71.9467C14.2116 72.0727 13.9598 72.2566 13.7642 72.4986C13.5687 72.7372 13.4626 73.0256 13.446 73.3636H12.2528C12.2727 72.83 12.4335 72.3627 12.7351 71.9616C13.0367 71.5573 13.4311 71.2424 13.9183 71.017C14.4089 70.7917 14.9474 70.679 15.5341 70.679C16.1638 70.679 16.7041 70.8066 17.1548 71.0618C17.6056 71.3137 17.9519 71.6468 18.1939 72.0611C18.4358 72.4754 18.5568 72.9228 18.5568 73.4034C18.5568 73.9768 18.406 74.4657 18.1044 74.87C17.8061 75.2744 17.4001 75.5545 16.8864 75.7102V75.7898C17.5294 75.8958 18.0315 76.1693 18.3928 76.6101C18.754 77.0476 18.9347 77.5895 18.9347 78.2358C18.9347 78.7893 18.7839 79.2865 18.4822 79.7273C18.1839 80.1648 17.7763 80.5095 17.2592 80.7614C16.7422 81.0133 16.1539 81.1392 15.4943 81.1392ZM23.2351 81.179C22.7512 81.179 22.312 81.0878 21.9176 80.9055C21.5232 80.7199 21.21 80.4531 20.978 80.1051C20.746 79.7538 20.63 79.3295 20.63 78.8324C20.63 78.3949 20.7161 78.0402 20.8885 77.7685C21.0608 77.4934 21.2912 77.2779 21.5795 77.1222C21.8679 76.9664 22.1861 76.8504 22.5341 76.7741C22.8854 76.6946 23.2384 76.6316 23.593 76.5852C24.0571 76.5256 24.4332 76.4808 24.7216 76.451C25.0133 76.4179 25.2254 76.3632 25.358 76.2869C25.4938 76.2107 25.5618 76.0781 25.5618 75.8892V75.8494C25.5618 75.3589 25.4276 74.9777 25.1591 74.706C24.8939 74.4342 24.4912 74.2983 23.951 74.2983C23.3909 74.2983 22.9517 74.4209 22.6335 74.6662C22.3153 74.9115 22.0916 75.1733 21.9624 75.4517L20.8487 75.054C21.0476 74.59 21.3127 74.2287 21.6442 73.9702C21.9789 73.7083 22.3435 73.526 22.7379 73.4233C23.1357 73.3172 23.5268 73.2642 23.9112 73.2642C24.1565 73.2642 24.4382 73.294 24.7564 73.3537C25.0779 73.41 25.3878 73.5277 25.6861 73.7067C25.9877 73.8857 26.2379 74.1558 26.4368 74.517C26.6357 74.8783 26.7351 75.3622 26.7351 75.9688V81H25.5618V79.9659H25.5021C25.4226 80.1316 25.29 80.3089 25.1044 80.4979C24.9188 80.6868 24.6719 80.8475 24.3636 80.9801C24.0554 81.1127 23.6792 81.179 23.2351 81.179ZM23.4141 80.125C23.8781 80.125 24.2692 80.0339 24.5874 79.8516C24.9089 79.6693 25.1508 79.4339 25.3132 79.1456C25.4789 78.8572 25.5618 78.554 25.5618 78.2358V77.1619C25.5121 77.2216 25.4027 77.2763 25.2337 77.326C25.0679 77.3724 24.8757 77.4138 24.657 77.4503C24.4415 77.4834 24.2311 77.5133 24.0256 77.5398C23.8234 77.563 23.6593 77.5829 23.5334 77.5994C23.2285 77.6392 22.9434 77.7038 22.6783 77.7933C22.4164 77.8795 22.2043 78.0104 22.0419 78.1861C21.8828 78.3584 21.8033 78.5937 21.8033 78.892C21.8033 79.2997 21.9541 79.608 22.2557 79.8168C22.5606 80.0223 22.9467 80.125 23.4141 80.125ZM33.5897 73.3636V74.4574H30.0499V81H28.8766V73.3636H33.5897ZM35.3024 83.8636V73.3636H36.4359V74.5767H36.5751C36.6613 74.4441 36.7806 74.2751 36.9331 74.0696C37.0888 73.8608 37.3109 73.6752 37.5993 73.5128C37.8909 73.3471 38.2853 73.2642 38.7825 73.2642C39.4255 73.2642 39.9922 73.425 40.4828 73.7464C40.9733 74.0679 41.3561 74.5237 41.6312 75.1136C41.9063 75.7036 42.0439 76.3996 42.0439 77.2017C42.0439 78.0104 41.9063 78.7114 41.6312 79.3047C41.3561 79.8946 40.975 80.352 40.4877 80.6768C40.0005 80.9983 39.4387 81.1591 38.8024 81.1591C38.3118 81.1591 37.9191 81.0779 37.6241 80.9155C37.3291 80.7498 37.1021 80.5625 36.943 80.3537C36.7839 80.1416 36.6613 79.9659 36.5751 79.8267H36.4757V83.8636H35.3024ZM36.4558 77.1818C36.4558 77.7585 36.5403 78.2673 36.7093 78.7081C36.8784 79.1456 37.1253 79.4886 37.4501 79.7372C37.7749 79.9825 38.1726 80.1051 38.6433 80.1051C39.1338 80.1051 39.5431 79.9759 39.8713 79.7173C40.2027 79.4555 40.4513 79.1042 40.617 78.6634C40.786 78.2192 40.8706 77.7254 40.8706 77.1818C40.8706 76.6449 40.7877 76.161 40.622 75.7301C40.4596 75.2959 40.2127 74.9529 39.8812 74.701C39.5531 74.4458 39.1404 74.3182 38.6433 74.3182C38.166 74.3182 37.765 74.4392 37.4402 74.6811C37.1154 74.9197 36.8701 75.2545 36.7044 75.6854C36.5386 76.1129 36.4558 76.6117 36.4558 77.1818ZM44.3159 83.8636C44.117 83.8636 43.9397 83.8471 43.7839 83.8139C43.6281 83.7841 43.5204 83.7543 43.4608 83.7244L43.7591 82.6903C44.0441 82.7633 44.296 82.7898 44.5147 82.7699C44.7335 82.75 44.9274 82.6522 45.0964 82.4766C45.2688 82.3042 45.4262 82.0241 45.5687 81.6364L45.7875 81.0398L42.9636 73.3636H44.2363L46.3443 79.4489H46.4238L48.5318 73.3636H49.8045L46.563 82.1136C46.4172 82.508 46.2366 82.8345 46.0211 83.093C45.8057 83.3549 45.5555 83.5488 45.2704 83.6747C44.9887 83.8007 44.6705 83.8636 44.3159 83.8636ZM50.8759 79.0511H52.1287C52.1552 79.3958 52.311 79.6577 52.5961 79.8366C52.8844 80.0156 53.2589 80.1051 53.7196 80.1051C54.1903 80.1051 54.593 80.009 54.9277 79.8168C55.2625 79.6212 55.4299 79.3063 55.4299 78.8722C55.4299 78.617 55.3669 78.3949 55.2409 78.206C55.115 78.0137 54.9377 77.8646 54.709 77.7585C54.4803 77.6525 54.2102 77.5994 53.8986 77.5994H52.5861V76.5455H53.8986C54.3659 76.5455 54.7106 76.4394 54.9327 76.2273C55.1581 76.0152 55.2708 75.75 55.2708 75.4318C55.2708 75.0904 55.1498 74.817 54.9078 74.6115C54.6659 74.4027 54.3229 74.2983 53.8787 74.2983C53.4313 74.2983 53.0584 74.3994 52.7601 74.6016C52.4618 74.8004 52.3044 75.0573 52.2878 75.3722H51.0549C51.0681 74.9612 51.1941 74.5982 51.4327 74.2834C51.6713 73.9652 51.9962 73.7166 52.4071 73.5376C52.8181 73.3554 53.2888 73.2642 53.8191 73.2642C54.356 73.2642 54.8217 73.3587 55.2161 73.5476C55.6138 73.7332 55.9204 73.9867 56.1358 74.3082C56.3546 74.6264 56.464 74.9877 56.464 75.392C56.464 75.8229 56.343 76.1709 56.101 76.4361C55.8591 76.7012 55.5558 76.8902 55.1912 77.0028V77.0824C55.4796 77.1023 55.7298 77.1951 55.9419 77.3608C56.1574 77.5232 56.3248 77.737 56.4441 78.0021C56.5634 78.264 56.623 78.554 56.623 78.8722C56.623 79.3362 56.4988 79.7405 56.2502 80.0852C56.0016 80.4266 55.6602 80.6918 55.226 80.8807C54.7918 81.0663 54.2963 81.1591 53.7395 81.1591C53.1993 81.1591 52.7154 81.0713 52.2878 80.8956C51.8603 80.7166 51.5205 80.4697 51.2686 80.1548C51.0201 79.8366 50.8891 79.4688 50.8759 79.0511ZM59.4444 79.2699L63.1234 73.3636H64.4757V81H63.3024V75.0938L59.6433 81H58.2711V73.3636H59.4444V79.2699ZM65.5856 74.4574V73.3636H71.7901V74.4574H69.2844V81H68.1112V74.4574H65.5856ZM74.5158 76.1278H76.7033C77.5982 76.1278 78.2826 76.3549 78.7566 76.8089C79.2305 77.263 79.4675 77.8381 79.4675 78.5341C79.4675 78.9915 79.3614 79.4074 79.1493 79.782C78.9372 80.1532 78.6257 80.4498 78.2147 80.6719C77.8037 80.8906 77.2999 81 76.7033 81H73.5016V73.3636H74.6749V79.9062H76.7033C77.1673 79.9062 77.5485 79.7836 77.8468 79.5384C78.1451 79.2931 78.2942 78.9782 78.2942 78.5938C78.2942 78.1894 78.1451 77.8596 77.8468 77.6044C77.5485 77.3492 77.1673 77.2216 76.7033 77.2216H74.5158V76.1278ZM88.3928 81.1591C87.657 81.1591 87.0223 80.9967 86.4886 80.6719C85.9583 80.3438 85.549 79.8864 85.2607 79.2997C84.9756 78.7098 84.8331 78.0237 84.8331 77.2415C84.8331 76.4593 84.9756 75.7699 85.2607 75.1733C85.549 74.5734 85.95 74.1061 86.4638 73.7713C86.9808 73.4332 87.584 73.2642 88.2734 73.2642C88.6712 73.2642 89.0639 73.3305 89.4517 73.4631C89.8395 73.5956 90.1925 73.8111 90.5107 74.1094C90.8288 74.4044 91.0824 74.7955 91.2713 75.2827C91.4602 75.7699 91.5547 76.3698 91.5547 77.0824V77.5795H85.6683V76.5653H90.3615C90.3615 76.1345 90.2753 75.75 90.103 75.4119C89.9339 75.0739 89.692 74.8071 89.3771 74.6115C89.0656 74.416 88.6977 74.3182 88.2734 74.3182C87.8061 74.3182 87.4018 74.4342 87.0604 74.6662C86.7223 74.8949 86.4621 75.1932 86.2798 75.5611C86.0975 75.929 86.0064 76.3234 86.0064 76.7443V77.4205C86.0064 77.9972 86.1058 78.486 86.3047 78.8871C86.5069 79.2848 86.7869 79.5881 87.1449 79.7969C87.5028 80.0024 87.9188 80.1051 88.3928 80.1051C88.701 80.1051 88.9794 80.062 89.228 79.9759C89.4799 79.8864 89.697 79.7538 89.8793 79.5781C90.0616 79.3991 90.2024 79.1771 90.3018 78.9119L91.4354 79.2301C91.3161 79.6146 91.1155 79.9527 90.8338 80.2443C90.5521 80.5327 90.2041 80.758 89.7898 80.9205C89.3755 81.0795 88.9098 81.1591 88.3928 81.1591ZM103.76 79.9062L103.621 83.1875H102.408V81H101.413V79.9062H103.76ZM93.3395 73.3636H94.5128V79.9062H97.3963V73.3636H98.5696V79.9062H101.453V73.3636H102.626V81H93.3395V73.3636ZM108.586 81.1591C107.85 81.1591 107.216 80.9967 106.682 80.6719C106.152 80.3438 105.742 79.8864 105.454 79.2997C105.169 78.7098 105.026 78.0237 105.026 77.2415C105.026 76.4593 105.169 75.7699 105.454 75.1733C105.742 74.5734 106.143 74.1061 106.657 73.7713C107.174 73.4332 107.777 73.2642 108.467 73.2642C108.865 73.2642 109.257 73.3305 109.645 73.4631C110.033 73.5956 110.386 73.8111 110.704 74.1094C111.022 74.4044 111.276 74.7955 111.465 75.2827C111.654 75.7699 111.748 76.3698 111.748 77.0824V77.5795H105.862V76.5653H110.555C110.555 76.1345 110.469 75.75 110.296 75.4119C110.127 75.0739 109.885 74.8071 109.57 74.6115C109.259 74.416 108.891 74.3182 108.467 74.3182C107.999 74.3182 107.595 74.4342 107.254 74.6662C106.916 74.8949 106.655 75.1932 106.473 75.5611C106.291 75.929 106.2 76.3234 106.2 76.7443V77.4205C106.2 77.9972 106.299 78.486 106.498 78.8871C106.7 79.2848 106.98 79.5881 107.338 79.7969C107.696 80.0024 108.112 80.1051 108.586 80.1051C108.894 80.1051 109.173 80.062 109.421 79.9759C109.673 79.8864 109.89 79.7538 110.073 79.5781C110.255 79.3991 110.396 79.1771 110.495 78.9119L111.629 79.2301C111.509 79.6146 111.309 79.9527 111.027 80.2443C110.745 80.5327 110.397 80.758 109.983 80.9205C109.569 81.0795 109.103 81.1591 108.586 81.1591ZM106.975 72.0909C106.767 72.0909 106.581 72.0114 106.419 71.8523C106.259 71.6899 106.18 71.5043 106.18 71.2955C106.18 71.0668 106.259 70.8778 106.419 70.7287C106.581 70.5762 106.767 70.5 106.975 70.5C107.204 70.5 107.393 70.5762 107.542 70.7287C107.695 70.8778 107.771 71.0668 107.771 71.2955C107.771 71.5043 107.695 71.6899 107.542 71.8523C107.393 72.0114 107.204 72.0909 106.975 72.0909ZM109.839 72.0909C109.63 72.0909 109.445 72.0114 109.282 71.8523C109.123 71.6899 109.044 71.5043 109.044 71.2955C109.044 71.0668 109.123 70.8778 109.282 70.7287C109.445 70.5762 109.63 70.5 109.839 70.5C110.068 70.5 110.257 70.5762 110.406 70.7287C110.558 70.8778 110.634 71.0668 110.634 71.2955C110.634 71.5043 110.558 71.6899 110.406 71.8523C110.257 72.0114 110.068 72.0909 109.839 72.0909Z" fill="#8F8F8F"/>
<rect x="0.5" y="0.5" width="123" height="123" rx="7.5" stroke="#292929"/>
</svg>
