<svg width="48" height="48" viewBox="0 0 48 48" fill="none" xmlns="http://www.w3.org/2000/svg">
<g id="48x48/box">
<path id="Vector" d="M10 41.1428C9.43333 41.1428 8.958 40.9508 8.574 40.5668C8.19 40.1828 7.99867 39.7082 8 39.1428V37.1428C6.33333 37.1428 4.91667 36.5595 3.75 35.3928C2.58333 34.2262 2 32.8095 2 31.1428V21.1428C2 20.0428 2.392 19.1008 3.176 18.3168C3.96 17.5328 4.90133 17.1415 6 17.1428C7.1 17.1428 8.042 17.5348 8.826 18.3188C9.61 19.1028 10.0013 20.0442 10 21.1428V29.1428H38V21.1428C38 20.0428 38.392 19.1008 39.176 18.3168C39.96 17.5328 40.9013 17.1415 42 17.1428C43.1 17.1428 44.042 17.5348 44.826 18.3188C45.61 19.1028 46.0013 20.0442 46 21.1428V31.1428C46 32.8095 45.4167 34.2262 44.25 35.3928C43.0833 36.5595 41.6667 37.1428 40 37.1428V39.1428C40 39.7095 39.808 40.1848 39.424 40.5688C39.04 40.9528 38.5653 41.1441 38 41.1428C37.4333 41.1428 36.958 40.9508 36.574 40.5668C36.19 40.1828 35.9987 39.7082 36 39.1428V37.1428H12V39.1428C12 39.7095 11.808 40.1848 11.424 40.5688C11.04 40.9528 10.5653 41.1441 10 41.1428ZM14 25.1428V21.1428C14 19.3095 13.4413 17.6675 12.324 16.2168C11.2067 14.7662 9.76533 13.7415 8 13.1428V11.1428C8 9.47616 8.58333 8.05949 9.75 6.89282C10.9167 5.72616 12.3333 5.14282 14 5.14282H34C35.6667 5.14282 37.0833 5.72616 38.25 6.89282C39.4167 8.05949 40 9.47616 40 11.1428V13.1428C38.2 13.6095 36.75 14.5848 35.65 16.0688C34.55 17.5528 34 19.2442 34 21.1428V25.1428H14Z" fill="white"/>
</g>
</svg>
